<svg width="32" height="32" viewBox="0 0 32 32" fill="none" xmlns="http://www.w3.org/2000/svg">
<mask id="mask0_5433_159057" style="mask-type:alpha" maskUnits="userSpaceOnUse" x="0" y="0" width="32" height="32">
<path d="M0 8C0 3.58172 3.58172 0 8 0H24C28.4183 0 32 3.58172 32 8V24C32 28.4183 28.4183 32 24 32H8C3.58172 32 0 28.4183 0 24V8Z" fill="#D80027"/>
</mask>
<g mask="url(#mask0_5433_159057)">
<path d="M0 8C0 3.58172 3.58172 0 8 0H24C28.4183 0 32 3.58172 32 8V24C32 28.4183 28.4183 32 24 32H8C3.58172 32 0 28.4183 0 24V8Z" fill="#D80027"/>
<rect x="32" width="11" height="32" transform="rotate(90 32 0)" fill="black"/>
<rect x="32" y="21" width="11" height="32" transform="rotate(90 32 21)" fill="#FFDA44"/>
</g>
</svg>
