<svg width="16" height="16" viewBox="0 0 24 24" xmlns="http://www.w3.org/2000/svg" fill="#FFC400"><path d="M11.3146 3.63896C11.6255 3.1223 12.3745 3.1223 12.6854 3.63896L15.2814 7.95257C15.3931 8.13818 15.5753 8.27055 15.7864 8.31943L20.691 9.45537C21.2785 9.59142 21.51 10.3038 21.1147 10.7592L17.8144 14.5611C17.6724 14.7246 17.6028 14.9388 17.6215 15.1547L18.0568 20.1703C18.1089 20.7711 17.503 21.2113 16.9477 20.9761L12.3121 19.0122C12.1126 18.9277 11.8874 18.9277 11.6879 19.0122L7.05226 20.9761C6.49703 21.2113 5.89105 20.7711 5.94319 20.1703L6.37848 15.1547C6.39721 14.9388 6.32762 14.7246 6.18561 14.5611L2.88532 10.7592C2.49003 10.3038 2.7215 9.59142 3.30895 9.45537L8.21364 8.31943C8.42468 8.27055 8.60688 8.13818 8.71858 7.95257L11.3146 3.63896Z"></path></svg>