<svg width="14" height="14" viewBox="0 0 14 14" fill="none" xmlns="http://www.w3.org/2000/svg">
<g clip-path="url(#clip0_1182_25670)">
<path d="M13.0375 2.45C13.0375 2.1875 12.8625 1.925 12.6 1.925H12.075C12.075 1.925 10.9375 1.925 9.8 1.4C8.575 1.05 7.7875 0.4375 7.7875 0.4375L7.4375 0.175C7.2625 0.0875 7 0.0875 6.825 0.175L6.5625 0.4375C6.5625 0.4375 5.775 0.9625 4.55 1.4875C3.4125 1.925 2.3625 2.0125 2.275 2.0125H1.75C1.4875 2.0125 1.3125 2.275 1.3125 2.5375V7.875C1.3125 9.275 2.1 10.7625 3.4125 12.075C4.6375 13.3 6.125 14 7.175 14C8.225 14 9.7125 13.3 10.9375 12.075C12.3375 10.7625 13.0375 9.275 13.0375 7.875V2.45ZM10.15 5.775L6.9125 9.0125C6.825 9.1 6.65 9.1875 6.475 9.1875C6.3 9.1875 6.125 9.1 6.0375 9.0125L4.4625 7.35C4.375 7.2625 4.2875 7.0875 4.2875 6.9125C4.2875 6.7375 4.375 6.5625 4.4625 6.475C4.725 6.2125 5.075 6.2125 5.3375 6.475L6.475 7.6125L9.275 4.8125C9.5375 4.55 9.8875 4.55 10.15 4.8125C10.2375 4.9 10.325 5.075 10.325 5.25C10.325 5.5125 10.325 5.6875 10.15 5.775Z" fill="#0EEA9D"/>
<mask id="path-2-inside-1_1182_25670" fill="white">
<path fill-rule="evenodd" clip-rule="evenodd" d="M12.6 1.925C12.8625 1.925 13.0375 2.1875 13.0375 2.45V7.875C13.0375 9.275 12.3375 10.7625 10.9375 12.075C9.7125 13.3 8.225 14 7.175 14C6.125 14 4.6375 13.3 3.4125 12.075C2.1 10.7625 1.3125 9.275 1.3125 7.875V2.5375C1.3125 2.275 1.4875 2.0125 1.75 2.0125H2.275C2.3625 2.0125 3.4125 1.925 4.55 1.4875C5.775 0.9625 6.5625 0.4375 6.5625 0.4375L6.825 0.175C7 0.0875 7.2625 0.0875 7.4375 0.175L7.7875 0.4375C7.7875 0.4375 8.575 1.05 9.8 1.4C10.9375 1.925 12.075 1.925 12.075 1.925H12.6Z"/>
</mask>
<path fill-rule="evenodd" clip-rule="evenodd" d="M12.6 1.925C12.8625 1.925 13.0375 2.1875 13.0375 2.45V7.875C13.0375 9.275 12.3375 10.7625 10.9375 12.075C9.7125 13.3 8.225 14 7.175 14C6.125 14 4.6375 13.3 3.4125 12.075C2.1 10.7625 1.3125 9.275 1.3125 7.875V2.5375C1.3125 2.275 1.4875 2.0125 1.75 2.0125H2.275C2.3625 2.0125 3.4125 1.925 4.55 1.4875C5.775 0.9625 6.5625 0.4375 6.5625 0.4375L6.825 0.175C7 0.0875 7.2625 0.0875 7.4375 0.175L7.7875 0.4375C7.7875 0.4375 8.575 1.05 9.8 1.4C10.9375 1.925 12.075 1.925 12.075 1.925H12.6Z" fill="#0DE298"/>
<path d="M10.9375 12.075L10.2536 11.3455L10.2418 11.3565L10.2304 11.3679L10.9375 12.075ZM3.4125 12.075L4.11961 11.3679L3.4125 12.075ZM4.55 1.4875L4.90898 2.42085L4.92658 2.41407L4.94392 2.40665L4.55 1.4875ZM6.5625 0.4375L7.1172 1.26955L7.19959 1.21462L7.26961 1.14461L6.5625 0.4375ZM6.825 0.175L6.37779 -0.719427L6.23264 -0.646854L6.11789 -0.532107L6.825 0.175ZM7.4375 0.175L8.0375 -0.625L7.96536 -0.679102L7.88471 -0.719427L7.4375 0.175ZM7.7875 0.4375L8.40144 -0.351852L8.39452 -0.357237L8.3875 -0.3625L7.7875 0.4375ZM9.8 1.4L10.2191 0.492041L10.149 0.459686L10.0747 0.438476L9.8 1.4ZM14.0375 2.45C14.0375 2.1089 13.9271 1.75873 13.7065 1.47512C13.4775 1.18068 13.0955 0.925 12.6 0.925V2.925C12.367 2.925 12.2037 2.80057 12.1278 2.703C12.0604 2.61627 12.0375 2.5286 12.0375 2.45H14.0375ZM14.0375 7.875V2.45H12.0375V7.875H14.0375ZM11.6214 12.8045C13.1686 11.354 14.0375 9.61811 14.0375 7.875H12.0375C12.0375 8.93189 11.5064 10.171 10.2536 11.3455L11.6214 12.8045ZM7.175 15C8.58376 15 10.3106 14.1161 11.6446 12.7821L10.2304 11.3679C9.11439 12.4839 7.86624 13 7.175 13V15ZM2.70539 12.7821C4.03939 14.1161 5.76624 15 7.175 15V13C6.48376 13 5.23561 12.4839 4.11961 11.3679L2.70539 12.7821ZM0.3125 7.875C0.3125 9.64101 1.29126 11.368 2.70539 12.7821L4.11961 11.3679C2.90874 10.157 2.3125 8.90899 2.3125 7.875H0.3125ZM0.3125 2.5375V7.875H2.3125V2.5375H0.3125ZM1.75 1.0125C1.25451 1.0125 0.872469 1.26818 0.64346 1.56262C0.422879 1.84623 0.3125 2.1964 0.3125 2.5375H2.3125C2.3125 2.6161 2.28962 2.70377 2.22216 2.7905C2.14628 2.88807 1.98299 3.0125 1.75 3.0125V1.0125ZM2.275 1.0125H1.75V3.0125H2.275V1.0125ZM4.19102 0.554154C3.16986 0.946907 2.2417 1.0125 2.275 1.0125V3.0125C2.4833 3.0125 3.65513 2.90309 4.90898 2.42085L4.19102 0.554154ZM6.5625 0.4375C6.0078 -0.39455 6.0079 -0.394618 6.008 -0.394683C6.00803 -0.394703 6.00812 -0.394766 6.00818 -0.394804C6.0083 -0.394881 6.0084 -0.39495 6.00849 -0.395011C6.00868 -0.395133 6.00881 -0.395223 6.0089 -0.395283C6.00908 -0.395401 6.00907 -0.395395 6.00887 -0.395265C6.00848 -0.395007 6.00735 -0.394256 6.00547 -0.39303C6.00173 -0.390578 5.99505 -0.386224 5.98551 -0.380095C5.96644 -0.367833 5.93598 -0.348488 5.89482 -0.323064C5.81245 -0.272187 5.68749 -0.197149 5.52536 -0.105951C5.2005 0.0767832 4.72978 0.322485 4.15608 0.568355L4.94392 2.40665C5.59522 2.12752 6.13075 1.84822 6.50589 1.6372C6.69376 1.53152 6.84224 1.4425 6.94581 1.37853C6.99761 1.34653 7.03825 1.32076 7.06703 1.30226C7.08142 1.29301 7.09285 1.28557 7.10124 1.28008C7.10544 1.27733 7.10887 1.27507 7.11153 1.27331C7.11286 1.27243 7.114 1.27167 7.11495 1.27105C7.11542 1.27073 7.11585 1.27045 7.11622 1.2702C7.11641 1.27008 7.11658 1.26996 7.11675 1.26985C7.11683 1.2698 7.11694 1.26972 7.11698 1.2697C7.11709 1.26962 7.1172 1.26955 6.5625 0.4375ZM6.11789 -0.532107L5.85539 -0.269607L7.26961 1.14461L7.53211 0.882107L6.11789 -0.532107ZM7.88471 -0.719427C7.63009 -0.84674 7.36083 -0.890625 7.13125 -0.890625C6.90167 -0.890625 6.63241 -0.84674 6.37779 -0.719427L7.27221 1.06943C7.22837 1.09135 7.19454 1.10041 7.17593 1.10433C7.15649 1.10843 7.14195 1.10938 7.13125 1.10938C7.12055 1.10938 7.10601 1.10843 7.08657 1.10433C7.06796 1.10041 7.03413 1.09135 6.99029 1.06943L7.88471 -0.719427ZM8.3875 -0.3625L8.0375 -0.625L6.8375 0.975L7.1875 1.2375L8.3875 -0.3625ZM10.0747 0.438476C9.55383 0.289651 9.12333 0.0839423 8.82464 -0.0840756C8.67617 -0.16759 8.56283 -0.240342 8.49 -0.289612C8.45365 -0.314197 8.42762 -0.33278 8.41259 -0.343735C8.40508 -0.349207 8.40033 -0.352758 8.39844 -0.354184C8.3975 -0.354896 8.39727 -0.355076 8.39776 -0.354696C8.39801 -0.354506 8.39844 -0.354177 8.39905 -0.353704C8.39936 -0.353467 8.39971 -0.353195 8.40011 -0.352887C8.40031 -0.352732 8.40052 -0.352569 8.40074 -0.352397C8.40085 -0.352311 8.40103 -0.352174 8.40108 -0.352131C8.40126 -0.351993 8.40144 -0.351852 7.7875 0.4375C7.17356 1.22685 7.17375 1.227 7.17394 1.22715C7.174 1.2272 7.1742 1.22735 7.17433 1.22745C7.1746 1.22766 7.17488 1.22788 7.17518 1.22811C7.17577 1.22857 7.17641 1.22906 7.1771 1.22959C7.17848 1.23066 7.18006 1.23187 7.18183 1.23323C7.18538 1.23595 7.18972 1.23925 7.19484 1.24311C7.20509 1.25083 7.21846 1.26078 7.23487 1.27274C7.26769 1.29665 7.31275 1.32865 7.36938 1.36696C7.48248 1.44347 7.64258 1.54571 7.84411 1.65908C8.24542 1.88481 8.82117 2.16035 9.52528 2.36152L10.0747 0.438476ZM12.075 1.925C12.075 0.925 12.0752 0.925 12.0754 0.925C12.0755 0.925 12.0757 0.925 12.0759 0.925C12.0761 0.925001 12.0764 0.925001 12.0766 0.925001C12.0771 0.925002 12.0775 0.925003 12.0778 0.925005C12.0785 0.925007 12.0789 0.92501 12.079 0.925011C12.0793 0.925013 12.0786 0.925009 12.0768 0.924983C12.0733 0.924931 12.0659 0.924792 12.0547 0.924448C12.0322 0.923757 11.9951 0.922245 11.9453 0.918964C11.8454 0.912379 11.6968 0.898802 11.5161 0.871003C11.1497 0.814636 10.6778 0.703777 10.2191 0.492041L9.38094 2.30796C10.0597 2.62122 10.7253 2.77286 11.212 2.84775C11.4579 2.88557 11.6647 2.90481 11.8137 2.91463C11.8883 2.91955 11.9489 2.92214 11.9931 2.9235C12.0153 2.92418 12.0333 2.92456 12.0471 2.92476C12.0539 2.92486 12.0597 2.92492 12.0644 2.92496C12.0667 2.92497 12.0688 2.92498 12.0705 2.92499C12.0714 2.92499 12.0722 2.925 12.073 2.925C12.0734 2.925 12.0737 2.925 12.074 2.925C12.0742 2.925 12.0745 2.925 12.0745 2.925C12.0748 2.925 12.075 2.925 12.075 1.925ZM12.6 0.925H12.075V2.925H12.6V0.925Z" fill="#1ACCA1" mask="url(#path-2-inside-1_1182_25670)"/>
<path d="M10.9375 12.075L10.2536 11.3455L10.2418 11.3565L10.2304 11.3679L10.9375 12.075ZM3.4125 12.075L4.11961 11.3679L3.4125 12.075ZM4.55 1.4875L4.90898 2.42085L4.92658 2.41407L4.94392 2.40665L4.55 1.4875ZM6.5625 0.4375L7.1172 1.26955L7.19959 1.21462L7.26961 1.14461L6.5625 0.4375ZM6.825 0.175L6.37779 -0.719427L6.23264 -0.646854L6.11789 -0.532107L6.825 0.175ZM7.4375 0.175L8.0375 -0.625L7.96536 -0.679102L7.88471 -0.719427L7.4375 0.175ZM7.7875 0.4375L8.40144 -0.351852L8.39452 -0.357237L8.3875 -0.3625L7.7875 0.4375ZM9.8 1.4L10.2191 0.492041L10.149 0.459686L10.0747 0.438476L9.8 1.4ZM14.0375 2.45C14.0375 2.1089 13.9271 1.75873 13.7065 1.47512C13.4775 1.18068 13.0955 0.925 12.6 0.925V2.925C12.367 2.925 12.2037 2.80057 12.1278 2.703C12.0604 2.61627 12.0375 2.5286 12.0375 2.45H14.0375ZM14.0375 7.875V2.45H12.0375V7.875H14.0375ZM11.6214 12.8045C13.1686 11.354 14.0375 9.61811 14.0375 7.875H12.0375C12.0375 8.93189 11.5064 10.171 10.2536 11.3455L11.6214 12.8045ZM7.175 15C8.58376 15 10.3106 14.1161 11.6446 12.7821L10.2304 11.3679C9.11439 12.4839 7.86624 13 7.175 13V15ZM2.70539 12.7821C4.03939 14.1161 5.76624 15 7.175 15V13C6.48376 13 5.23561 12.4839 4.11961 11.3679L2.70539 12.7821ZM0.3125 7.875C0.3125 9.64101 1.29126 11.368 2.70539 12.7821L4.11961 11.3679C2.90874 10.157 2.3125 8.90899 2.3125 7.875H0.3125ZM0.3125 2.5375V7.875H2.3125V2.5375H0.3125ZM1.75 1.0125C1.25451 1.0125 0.872469 1.26818 0.64346 1.56262C0.422879 1.84623 0.3125 2.1964 0.3125 2.5375H2.3125C2.3125 2.6161 2.28962 2.70377 2.22216 2.7905C2.14628 2.88807 1.98299 3.0125 1.75 3.0125V1.0125ZM2.275 1.0125H1.75V3.0125H2.275V1.0125ZM4.19102 0.554154C3.16986 0.946907 2.2417 1.0125 2.275 1.0125V3.0125C2.4833 3.0125 3.65513 2.90309 4.90898 2.42085L4.19102 0.554154ZM6.5625 0.4375C6.0078 -0.39455 6.0079 -0.394618 6.008 -0.394683C6.00803 -0.394703 6.00812 -0.394766 6.00818 -0.394804C6.0083 -0.394881 6.0084 -0.39495 6.00849 -0.395011C6.00868 -0.395133 6.00881 -0.395223 6.0089 -0.395283C6.00908 -0.395401 6.00907 -0.395395 6.00887 -0.395265C6.00848 -0.395007 6.00735 -0.394256 6.00547 -0.39303C6.00173 -0.390578 5.99505 -0.386224 5.98551 -0.380095C5.96644 -0.367833 5.93598 -0.348488 5.89482 -0.323064C5.81245 -0.272187 5.68749 -0.197149 5.52536 -0.105951C5.2005 0.0767832 4.72978 0.322485 4.15608 0.568355L4.94392 2.40665C5.59522 2.12752 6.13075 1.84822 6.50589 1.6372C6.69376 1.53152 6.84224 1.4425 6.94581 1.37853C6.99761 1.34653 7.03825 1.32076 7.06703 1.30226C7.08142 1.29301 7.09285 1.28557 7.10124 1.28008C7.10544 1.27733 7.10887 1.27507 7.11153 1.27331C7.11286 1.27243 7.114 1.27167 7.11495 1.27105C7.11542 1.27073 7.11585 1.27045 7.11622 1.2702C7.11641 1.27008 7.11658 1.26996 7.11675 1.26985C7.11683 1.2698 7.11694 1.26972 7.11698 1.2697C7.11709 1.26962 7.1172 1.26955 6.5625 0.4375ZM6.11789 -0.532107L5.85539 -0.269607L7.26961 1.14461L7.53211 0.882107L6.11789 -0.532107ZM7.88471 -0.719427C7.63009 -0.84674 7.36083 -0.890625 7.13125 -0.890625C6.90167 -0.890625 6.63241 -0.84674 6.37779 -0.719427L7.27221 1.06943C7.22837 1.09135 7.19454 1.10041 7.17593 1.10433C7.15649 1.10843 7.14195 1.10938 7.13125 1.10938C7.12055 1.10938 7.10601 1.10843 7.08657 1.10433C7.06796 1.10041 7.03413 1.09135 6.99029 1.06943L7.88471 -0.719427ZM8.3875 -0.3625L8.0375 -0.625L6.8375 0.975L7.1875 1.2375L8.3875 -0.3625ZM10.0747 0.438476C9.55383 0.289651 9.12333 0.0839423 8.82464 -0.0840756C8.67617 -0.16759 8.56283 -0.240342 8.49 -0.289612C8.45365 -0.314197 8.42762 -0.33278 8.41259 -0.343735C8.40508 -0.349207 8.40033 -0.352758 8.39844 -0.354184C8.3975 -0.354896 8.39727 -0.355076 8.39776 -0.354696C8.39801 -0.354506 8.39844 -0.354177 8.39905 -0.353704C8.39936 -0.353467 8.39971 -0.353195 8.40011 -0.352887C8.40031 -0.352732 8.40052 -0.352569 8.40074 -0.352397C8.40085 -0.352311 8.40103 -0.352174 8.40108 -0.352131C8.40126 -0.351993 8.40144 -0.351852 7.7875 0.4375C7.17356 1.22685 7.17375 1.227 7.17394 1.22715C7.174 1.2272 7.1742 1.22735 7.17433 1.22745C7.1746 1.22766 7.17488 1.22788 7.17518 1.22811C7.17577 1.22857 7.17641 1.22906 7.1771 1.22959C7.17848 1.23066 7.18006 1.23187 7.18183 1.23323C7.18538 1.23595 7.18972 1.23925 7.19484 1.24311C7.20509 1.25083 7.21846 1.26078 7.23487 1.27274C7.26769 1.29665 7.31275 1.32865 7.36938 1.36696C7.48248 1.44347 7.64258 1.54571 7.84411 1.65908C8.24542 1.88481 8.82117 2.16035 9.52528 2.36152L10.0747 0.438476ZM12.075 1.925C12.075 0.925 12.0752 0.925 12.0754 0.925C12.0755 0.925 12.0757 0.925 12.0759 0.925C12.0761 0.925001 12.0764 0.925001 12.0766 0.925001C12.0771 0.925002 12.0775 0.925003 12.0778 0.925005C12.0785 0.925007 12.0789 0.92501 12.079 0.925011C12.0793 0.925013 12.0786 0.925009 12.0768 0.924983C12.0733 0.924931 12.0659 0.924792 12.0547 0.924448C12.0322 0.923757 11.9951 0.922245 11.9453 0.918964C11.8454 0.912379 11.6968 0.898802 11.5161 0.871003C11.1497 0.814636 10.6778 0.703777 10.2191 0.492041L9.38094 2.30796C10.0597 2.62122 10.7253 2.77286 11.212 2.84775C11.4579 2.88557 11.6647 2.90481 11.8137 2.91463C11.8883 2.91955 11.9489 2.92214 11.9931 2.9235C12.0153 2.92418 12.0333 2.92456 12.0471 2.92476C12.0539 2.92486 12.0597 2.92492 12.0644 2.92496C12.0667 2.92497 12.0688 2.92498 12.0705 2.92499C12.0714 2.92499 12.0722 2.925 12.073 2.925C12.0734 2.925 12.0737 2.925 12.074 2.925C12.0742 2.925 12.0745 2.925 12.0745 2.925C12.0748 2.925 12.075 2.925 12.075 1.925ZM12.6 0.925H12.075V2.925H12.6V0.925Z" fill="#1ACCA1" mask="url(#path-2-inside-1_1182_25670)"/>
<path d="M10.9375 12.075L10.2536 11.3455L10.2418 11.3565L10.2304 11.3679L10.9375 12.075ZM3.4125 12.075L4.11961 11.3679L3.4125 12.075ZM4.55 1.4875L4.90898 2.42085L4.92658 2.41407L4.94392 2.40665L4.55 1.4875ZM6.5625 0.4375L7.1172 1.26955L7.19959 1.21462L7.26961 1.14461L6.5625 0.4375ZM6.825 0.175L6.37779 -0.719427L6.23264 -0.646854L6.11789 -0.532107L6.825 0.175ZM7.4375 0.175L8.0375 -0.625L7.96536 -0.679102L7.88471 -0.719427L7.4375 0.175ZM7.7875 0.4375L8.40144 -0.351852L8.39452 -0.357237L8.3875 -0.3625L7.7875 0.4375ZM9.8 1.4L10.2191 0.492041L10.149 0.459686L10.0747 0.438476L9.8 1.4ZM14.0375 2.45C14.0375 2.1089 13.9271 1.75873 13.7065 1.47512C13.4775 1.18068 13.0955 0.925 12.6 0.925V2.925C12.367 2.925 12.2037 2.80057 12.1278 2.703C12.0604 2.61627 12.0375 2.5286 12.0375 2.45H14.0375ZM14.0375 7.875V2.45H12.0375V7.875H14.0375ZM11.6214 12.8045C13.1686 11.354 14.0375 9.61811 14.0375 7.875H12.0375C12.0375 8.93189 11.5064 10.171 10.2536 11.3455L11.6214 12.8045ZM7.175 15C8.58376 15 10.3106 14.1161 11.6446 12.7821L10.2304 11.3679C9.11439 12.4839 7.86624 13 7.175 13V15ZM2.70539 12.7821C4.03939 14.1161 5.76624 15 7.175 15V13C6.48376 13 5.23561 12.4839 4.11961 11.3679L2.70539 12.7821ZM0.3125 7.875C0.3125 9.64101 1.29126 11.368 2.70539 12.7821L4.11961 11.3679C2.90874 10.157 2.3125 8.90899 2.3125 7.875H0.3125ZM0.3125 2.5375V7.875H2.3125V2.5375H0.3125ZM1.75 1.0125C1.25451 1.0125 0.872469 1.26818 0.64346 1.56262C0.422879 1.84623 0.3125 2.1964 0.3125 2.5375H2.3125C2.3125 2.6161 2.28962 2.70377 2.22216 2.7905C2.14628 2.88807 1.98299 3.0125 1.75 3.0125V1.0125ZM2.275 1.0125H1.75V3.0125H2.275V1.0125ZM4.19102 0.554154C3.16986 0.946907 2.2417 1.0125 2.275 1.0125V3.0125C2.4833 3.0125 3.65513 2.90309 4.90898 2.42085L4.19102 0.554154ZM6.5625 0.4375C6.0078 -0.39455 6.0079 -0.394618 6.008 -0.394683C6.00803 -0.394703 6.00812 -0.394766 6.00818 -0.394804C6.0083 -0.394881 6.0084 -0.39495 6.00849 -0.395011C6.00868 -0.395133 6.00881 -0.395223 6.0089 -0.395283C6.00908 -0.395401 6.00907 -0.395395 6.00887 -0.395265C6.00848 -0.395007 6.00735 -0.394256 6.00547 -0.39303C6.00173 -0.390578 5.99505 -0.386224 5.98551 -0.380095C5.96644 -0.367833 5.93598 -0.348488 5.89482 -0.323064C5.81245 -0.272187 5.68749 -0.197149 5.52536 -0.105951C5.2005 0.0767832 4.72978 0.322485 4.15608 0.568355L4.94392 2.40665C5.59522 2.12752 6.13075 1.84822 6.50589 1.6372C6.69376 1.53152 6.84224 1.4425 6.94581 1.37853C6.99761 1.34653 7.03825 1.32076 7.06703 1.30226C7.08142 1.29301 7.09285 1.28557 7.10124 1.28008C7.10544 1.27733 7.10887 1.27507 7.11153 1.27331C7.11286 1.27243 7.114 1.27167 7.11495 1.27105C7.11542 1.27073 7.11585 1.27045 7.11622 1.2702C7.11641 1.27008 7.11658 1.26996 7.11675 1.26985C7.11683 1.2698 7.11694 1.26972 7.11698 1.2697C7.11709 1.26962 7.1172 1.26955 6.5625 0.4375ZM6.11789 -0.532107L5.85539 -0.269607L7.26961 1.14461L7.53211 0.882107L6.11789 -0.532107ZM7.88471 -0.719427C7.63009 -0.84674 7.36083 -0.890625 7.13125 -0.890625C6.90167 -0.890625 6.63241 -0.84674 6.37779 -0.719427L7.27221 1.06943C7.22837 1.09135 7.19454 1.10041 7.17593 1.10433C7.15649 1.10843 7.14195 1.10938 7.13125 1.10938C7.12055 1.10938 7.10601 1.10843 7.08657 1.10433C7.06796 1.10041 7.03413 1.09135 6.99029 1.06943L7.88471 -0.719427ZM8.3875 -0.3625L8.0375 -0.625L6.8375 0.975L7.1875 1.2375L8.3875 -0.3625ZM10.0747 0.438476C9.55383 0.289651 9.12333 0.0839423 8.82464 -0.0840756C8.67617 -0.16759 8.56283 -0.240342 8.49 -0.289612C8.45365 -0.314197 8.42762 -0.33278 8.41259 -0.343735C8.40508 -0.349207 8.40033 -0.352758 8.39844 -0.354184C8.3975 -0.354896 8.39727 -0.355076 8.39776 -0.354696C8.39801 -0.354506 8.39844 -0.354177 8.39905 -0.353704C8.39936 -0.353467 8.39971 -0.353195 8.40011 -0.352887C8.40031 -0.352732 8.40052 -0.352569 8.40074 -0.352397C8.40085 -0.352311 8.40103 -0.352174 8.40108 -0.352131C8.40126 -0.351993 8.40144 -0.351852 7.7875 0.4375C7.17356 1.22685 7.17375 1.227 7.17394 1.22715C7.174 1.2272 7.1742 1.22735 7.17433 1.22745C7.1746 1.22766 7.17488 1.22788 7.17518 1.22811C7.17577 1.22857 7.17641 1.22906 7.1771 1.22959C7.17848 1.23066 7.18006 1.23187 7.18183 1.23323C7.18538 1.23595 7.18972 1.23925 7.19484 1.24311C7.20509 1.25083 7.21846 1.26078 7.23487 1.27274C7.26769 1.29665 7.31275 1.32865 7.36938 1.36696C7.48248 1.44347 7.64258 1.54571 7.84411 1.65908C8.24542 1.88481 8.82117 2.16035 9.52528 2.36152L10.0747 0.438476ZM12.075 1.925C12.075 0.925 12.0752 0.925 12.0754 0.925C12.0755 0.925 12.0757 0.925 12.0759 0.925C12.0761 0.925001 12.0764 0.925001 12.0766 0.925001C12.0771 0.925002 12.0775 0.925003 12.0778 0.925005C12.0785 0.925007 12.0789 0.92501 12.079 0.925011C12.0793 0.925013 12.0786 0.925009 12.0768 0.924983C12.0733 0.924931 12.0659 0.924792 12.0547 0.924448C12.0322 0.923757 11.9951 0.922245 11.9453 0.918964C11.8454 0.912379 11.6968 0.898802 11.5161 0.871003C11.1497 0.814636 10.6778 0.703777 10.2191 0.492041L9.38094 2.30796C10.0597 2.62122 10.7253 2.77286 11.212 2.84775C11.4579 2.88557 11.6647 2.90481 11.8137 2.91463C11.8883 2.91955 11.9489 2.92214 11.9931 2.9235C12.0153 2.92418 12.0333 2.92456 12.0471 2.92476C12.0539 2.92486 12.0597 2.92492 12.0644 2.92496C12.0667 2.92497 12.0688 2.92498 12.0705 2.92499C12.0714 2.92499 12.0722 2.925 12.073 2.925C12.0734 2.925 12.0737 2.925 12.074 2.925C12.0742 2.925 12.0745 2.925 12.0745 2.925C12.0748 2.925 12.075 2.925 12.075 1.925ZM12.6 0.925H12.075V2.925H12.6V0.925Z" fill="#1ACCA1" mask="url(#path-2-inside-1_1182_25670)"/>
<path d="M10.9375 12.075L10.2536 11.3455L10.2418 11.3565L10.2304 11.3679L10.9375 12.075ZM3.4125 12.075L4.11961 11.3679L3.4125 12.075ZM4.55 1.4875L4.90898 2.42085L4.92658 2.41407L4.94392 2.40665L4.55 1.4875ZM6.5625 0.4375L7.1172 1.26955L7.19959 1.21462L7.26961 1.14461L6.5625 0.4375ZM6.825 0.175L6.37779 -0.719427L6.23264 -0.646854L6.11789 -0.532107L6.825 0.175ZM7.4375 0.175L8.0375 -0.625L7.96536 -0.679102L7.88471 -0.719427L7.4375 0.175ZM7.7875 0.4375L8.40144 -0.351852L8.39452 -0.357237L8.3875 -0.3625L7.7875 0.4375ZM9.8 1.4L10.2191 0.492041L10.149 0.459686L10.0747 0.438476L9.8 1.4ZM14.0375 2.45C14.0375 2.1089 13.9271 1.75873 13.7065 1.47512C13.4775 1.18068 13.0955 0.925 12.6 0.925V2.925C12.367 2.925 12.2037 2.80057 12.1278 2.703C12.0604 2.61627 12.0375 2.5286 12.0375 2.45H14.0375ZM14.0375 7.875V2.45H12.0375V7.875H14.0375ZM11.6214 12.8045C13.1686 11.354 14.0375 9.61811 14.0375 7.875H12.0375C12.0375 8.93189 11.5064 10.171 10.2536 11.3455L11.6214 12.8045ZM7.175 15C8.58376 15 10.3106 14.1161 11.6446 12.7821L10.2304 11.3679C9.11439 12.4839 7.86624 13 7.175 13V15ZM2.70539 12.7821C4.03939 14.1161 5.76624 15 7.175 15V13C6.48376 13 5.23561 12.4839 4.11961 11.3679L2.70539 12.7821ZM0.3125 7.875C0.3125 9.64101 1.29126 11.368 2.70539 12.7821L4.11961 11.3679C2.90874 10.157 2.3125 8.90899 2.3125 7.875H0.3125ZM0.3125 2.5375V7.875H2.3125V2.5375H0.3125ZM1.75 1.0125C1.25451 1.0125 0.872469 1.26818 0.64346 1.56262C0.422879 1.84623 0.3125 2.1964 0.3125 2.5375H2.3125C2.3125 2.6161 2.28962 2.70377 2.22216 2.7905C2.14628 2.88807 1.98299 3.0125 1.75 3.0125V1.0125ZM2.275 1.0125H1.75V3.0125H2.275V1.0125ZM4.19102 0.554154C3.16986 0.946907 2.2417 1.0125 2.275 1.0125V3.0125C2.4833 3.0125 3.65513 2.90309 4.90898 2.42085L4.19102 0.554154ZM6.5625 0.4375C6.0078 -0.39455 6.0079 -0.394618 6.008 -0.394683C6.00803 -0.394703 6.00812 -0.394766 6.00818 -0.394804C6.0083 -0.394881 6.0084 -0.39495 6.00849 -0.395011C6.00868 -0.395133 6.00881 -0.395223 6.0089 -0.395283C6.00908 -0.395401 6.00907 -0.395395 6.00887 -0.395265C6.00848 -0.395007 6.00735 -0.394256 6.00547 -0.39303C6.00173 -0.390578 5.99505 -0.386224 5.98551 -0.380095C5.96644 -0.367833 5.93598 -0.348488 5.89482 -0.323064C5.81245 -0.272187 5.68749 -0.197149 5.52536 -0.105951C5.2005 0.0767832 4.72978 0.322485 4.15608 0.568355L4.94392 2.40665C5.59522 2.12752 6.13075 1.84822 6.50589 1.6372C6.69376 1.53152 6.84224 1.4425 6.94581 1.37853C6.99761 1.34653 7.03825 1.32076 7.06703 1.30226C7.08142 1.29301 7.09285 1.28557 7.10124 1.28008C7.10544 1.27733 7.10887 1.27507 7.11153 1.27331C7.11286 1.27243 7.114 1.27167 7.11495 1.27105C7.11542 1.27073 7.11585 1.27045 7.11622 1.2702C7.11641 1.27008 7.11658 1.26996 7.11675 1.26985C7.11683 1.2698 7.11694 1.26972 7.11698 1.2697C7.11709 1.26962 7.1172 1.26955 6.5625 0.4375ZM6.11789 -0.532107L5.85539 -0.269607L7.26961 1.14461L7.53211 0.882107L6.11789 -0.532107ZM7.88471 -0.719427C7.63009 -0.84674 7.36083 -0.890625 7.13125 -0.890625C6.90167 -0.890625 6.63241 -0.84674 6.37779 -0.719427L7.27221 1.06943C7.22837 1.09135 7.19454 1.10041 7.17593 1.10433C7.15649 1.10843 7.14195 1.10938 7.13125 1.10938C7.12055 1.10938 7.10601 1.10843 7.08657 1.10433C7.06796 1.10041 7.03413 1.09135 6.99029 1.06943L7.88471 -0.719427ZM8.3875 -0.3625L8.0375 -0.625L6.8375 0.975L7.1875 1.2375L8.3875 -0.3625ZM10.0747 0.438476C9.55383 0.289651 9.12333 0.0839423 8.82464 -0.0840756C8.67617 -0.16759 8.56283 -0.240342 8.49 -0.289612C8.45365 -0.314197 8.42762 -0.33278 8.41259 -0.343735C8.40508 -0.349207 8.40033 -0.352758 8.39844 -0.354184C8.3975 -0.354896 8.39727 -0.355076 8.39776 -0.354696C8.39801 -0.354506 8.39844 -0.354177 8.39905 -0.353704C8.39936 -0.353467 8.39971 -0.353195 8.40011 -0.352887C8.40031 -0.352732 8.40052 -0.352569 8.40074 -0.352397C8.40085 -0.352311 8.40103 -0.352174 8.40108 -0.352131C8.40126 -0.351993 8.40144 -0.351852 7.7875 0.4375C7.17356 1.22685 7.17375 1.227 7.17394 1.22715C7.174 1.2272 7.1742 1.22735 7.17433 1.22745C7.1746 1.22766 7.17488 1.22788 7.17518 1.22811C7.17577 1.22857 7.17641 1.22906 7.1771 1.22959C7.17848 1.23066 7.18006 1.23187 7.18183 1.23323C7.18538 1.23595 7.18972 1.23925 7.19484 1.24311C7.20509 1.25083 7.21846 1.26078 7.23487 1.27274C7.26769 1.29665 7.31275 1.32865 7.36938 1.36696C7.48248 1.44347 7.64258 1.54571 7.84411 1.65908C8.24542 1.88481 8.82117 2.16035 9.52528 2.36152L10.0747 0.438476ZM12.075 1.925C12.075 0.925 12.0752 0.925 12.0754 0.925C12.0755 0.925 12.0757 0.925 12.0759 0.925C12.0761 0.925001 12.0764 0.925001 12.0766 0.925001C12.0771 0.925002 12.0775 0.925003 12.0778 0.925005C12.0785 0.925007 12.0789 0.92501 12.079 0.925011C12.0793 0.925013 12.0786 0.925009 12.0768 0.924983C12.0733 0.924931 12.0659 0.924792 12.0547 0.924448C12.0322 0.923757 11.9951 0.922245 11.9453 0.918964C11.8454 0.912379 11.6968 0.898802 11.5161 0.871003C11.1497 0.814636 10.6778 0.703777 10.2191 0.492041L9.38094 2.30796C10.0597 2.62122 10.7253 2.77286 11.212 2.84775C11.4579 2.88557 11.6647 2.90481 11.8137 2.91463C11.8883 2.91955 11.9489 2.92214 11.9931 2.9235C12.0153 2.92418 12.0333 2.92456 12.0471 2.92476C12.0539 2.92486 12.0597 2.92492 12.0644 2.92496C12.0667 2.92497 12.0688 2.92498 12.0705 2.92499C12.0714 2.92499 12.0722 2.925 12.073 2.925C12.0734 2.925 12.0737 2.925 12.074 2.925C12.0742 2.925 12.0745 2.925 12.0745 2.925C12.0748 2.925 12.075 2.925 12.075 1.925ZM12.6 0.925H12.075V2.925H12.6V0.925Z" fill="#1ACCA1" mask="url(#path-2-inside-1_1182_25670)"/>
<mask id="path-4-inside-2_1182_25670" fill="white">
<path fill-rule="evenodd" clip-rule="evenodd" d="M12.6 1.925C12.8625 1.925 13.0375 2.1875 13.0375 2.45V7.875C13.0375 9.275 12.3375 10.7625 10.9375 12.075C9.7125 13.3 8.225 14 7.175 14C6.125 14 4.6375 13.3 3.4125 12.075C2.1 10.7625 1.3125 9.275 1.3125 7.875V2.5375C1.3125 2.275 1.4875 2.0125 1.75 2.0125H2.275C2.3625 2.0125 3.4125 1.925 4.55 1.4875C5.775 0.9625 6.5625 0.4375 6.5625 0.4375L6.825 0.175C7 0.0875 7.2625 0.0875 7.4375 0.175L7.7875 0.4375C7.7875 0.4375 8.575 1.05 9.8 1.4C10.9375 1.925 12.075 1.925 12.075 1.925H12.6Z"/>
</mask>
<path d="M10.9375 12.075L9.89791 10.9661L9.88003 10.9829L9.8627 11.0002L10.9375 12.075ZM3.4125 12.075L4.4873 11.0002H4.4873L3.4125 12.075ZM4.55 1.4875L5.09565 2.90619L5.12241 2.89589L5.14876 2.8846L4.55 1.4875ZM6.5625 0.4375L7.40564 1.70222L7.53088 1.61873L7.6373 1.5123L6.5625 0.4375ZM6.825 0.175L6.14523 -1.18453L5.92461 -1.07422L5.7502 -0.899803L6.825 0.175ZM7.4375 0.175L8.3495 -1.041L8.23985 -1.12323L8.11726 -1.18453L7.4375 0.175ZM7.7875 0.4375L8.72069 -0.762316L8.71017 -0.7705L8.6995 -0.778499L7.7875 0.4375ZM9.8 1.4L10.437 0.0199018L10.3304 -0.0292767L10.2176 -0.0615164L9.8 1.4ZM14.5575 2.45C14.5575 1.99977 14.4125 1.53576 14.117 1.15587C13.8087 0.759512 13.2849 0.405 12.6 0.405V3.445C12.1776 3.445 11.8725 3.22174 11.7174 3.02225C11.575 2.83924 11.5175 2.63773 11.5175 2.45H14.5575ZM14.5575 7.875V2.45H11.5175V7.875H14.5575ZM11.9771 13.1839C13.6008 11.6616 14.5575 9.79652 14.5575 7.875H11.5175C11.5175 8.75348 11.0742 9.86336 9.89791 10.9661L11.9771 13.1839ZM7.175 15.52C8.77031 15.52 10.6216 14.5405 12.0123 13.1498L9.8627 11.0002C8.80337 12.0595 7.67969 12.48 7.175 12.48V15.52ZM2.3377 13.1498C3.72837 14.5405 5.57969 15.52 7.175 15.52V12.48C6.67031 12.48 5.54663 12.0595 4.4873 11.0002L2.3377 13.1498ZM-0.2075 7.875C-0.2075 9.83133 0.870712 11.6828 2.3377 13.1498L4.4873 11.0002C3.32929 9.84218 2.8325 8.71867 2.8325 7.875H-0.2075ZM-0.2075 2.5375V7.875H2.8325V2.5375H-0.2075ZM1.75 0.4925C1.0651 0.4925 0.541278 0.847012 0.232997 1.24337C-0.0624746 1.62327 -0.2075 2.08727 -0.2075 2.5375H2.8325C2.8325 2.72523 2.77497 2.92673 2.63263 3.10975C2.47747 3.30924 2.1724 3.5325 1.75 3.5325V0.4925ZM2.275 0.4925H1.75V3.5325H2.275V0.4925ZM4.00435 0.0688148C3.54519 0.245417 3.09331 0.354754 2.74338 0.419214C2.57031 0.451095 2.42831 0.470878 2.33076 0.482294C2.20203 0.497357 2.19893 0.4925 2.275 0.4925V3.5325C2.54612 3.5325 3.78131 3.4117 5.09565 2.90619L4.00435 0.0688148ZM6.5625 0.4375C5.71936 -0.827217 5.71951 -0.82732 5.71966 -0.827422C5.71971 -0.827453 5.71986 -0.827553 5.71995 -0.827615C5.72014 -0.82774 5.72032 -0.827857 5.72048 -0.827967C5.72081 -0.828185 5.72109 -0.828372 5.72133 -0.828529C5.7218 -0.828841 5.72208 -0.829029 5.72218 -0.829095C5.72238 -0.829226 5.72184 -0.828869 5.72057 -0.828038C5.71804 -0.826377 5.71259 -0.822825 5.70432 -0.817507C5.68777 -0.806869 5.65996 -0.789194 5.62156 -0.765479C5.5447 -0.718006 5.42587 -0.646604 5.27043 -0.55917C4.95864 -0.38379 4.50476 -0.146823 3.95124 0.0903997L5.14876 2.8846C5.82024 2.59682 6.37261 2.30879 6.76082 2.09042C6.95538 1.98098 7.10998 1.88832 7.21906 1.82095C7.27363 1.78724 7.31692 1.7598 7.34822 1.73968C7.36388 1.72961 7.37654 1.72137 7.38614 1.71509C7.39094 1.71194 7.39497 1.70929 7.39822 1.70714C7.39985 1.70606 7.40128 1.70511 7.40252 1.70429C7.40314 1.70388 7.40371 1.7035 7.40423 1.70316C7.40449 1.70299 7.40474 1.70282 7.40497 1.70266C7.40509 1.70258 7.40526 1.70247 7.40532 1.70243C7.40548 1.70232 7.40564 1.70222 6.5625 0.4375ZM5.7502 -0.899803L5.4877 -0.637303L7.6373 1.5123L7.8998 1.2498L5.7502 -0.899803ZM8.11726 -1.18453C7.77573 -1.3553 7.42333 -1.41062 7.13125 -1.41062C6.83917 -1.41062 6.48677 -1.3553 6.14523 -1.18453L7.50477 1.53453C7.33823 1.6178 7.20458 1.62937 7.13125 1.62937C7.05792 1.62937 6.92427 1.6178 6.75774 1.53453L8.11726 -1.18453ZM8.6995 -0.778499L8.3495 -1.041L6.5255 1.391L6.8755 1.6535L8.6995 -0.778499ZM10.2176 -0.0615164C9.74433 -0.196731 9.35159 -0.384283 9.07957 -0.537295C8.9449 -0.613049 8.84372 -0.678133 8.78136 -0.720319C8.75029 -0.741338 8.72921 -0.756431 8.71879 -0.764018C8.7136 -0.767804 8.7111 -0.769691 8.71138 -0.769481C8.71152 -0.769375 8.71236 -0.768742 8.7139 -0.767557C8.71468 -0.766965 8.71563 -0.766234 8.71676 -0.765361C8.71732 -0.764925 8.71793 -0.764453 8.71859 -0.763946C8.71892 -0.763692 8.71925 -0.763429 8.7196 -0.763158C8.71978 -0.763022 8.72005 -0.762811 8.72014 -0.762743C8.72041 -0.762531 8.72069 -0.762316 7.7875 0.4375C6.85431 1.63732 6.85459 1.63754 6.85488 1.63776C6.85498 1.63783 6.85527 1.63806 6.85547 1.63821C6.85586 1.63852 6.85627 1.63884 6.8567 1.63917C6.85754 1.63983 6.85844 1.64052 6.85939 1.64125C6.86129 1.64272 6.86339 1.64433 6.86569 1.64609C6.87029 1.64962 6.8757 1.65373 6.88191 1.65841C6.89432 1.66776 6.90994 1.67938 6.92867 1.69302C6.9661 1.7203 7.01612 1.75579 7.07802 1.79766C7.20159 1.88126 7.37385 1.99117 7.58918 2.11229C8.01716 2.35303 8.63067 2.64673 9.38242 2.86152L10.2176 -0.0615164ZM12.075 1.925C12.075 0.405 12.0753 0.405 12.0757 0.405C12.0758 0.405 12.0761 0.405001 12.0763 0.405001C12.0767 0.405001 12.0772 0.405002 12.0775 0.405002C12.0783 0.405004 12.079 0.405006 12.0797 0.405008C12.081 0.405013 12.082 0.405019 12.0828 0.405025C12.0844 0.405036 12.085 0.405046 12.0846 0.40504C12.0837 0.405028 12.079 0.404951 12.0706 0.404694C12.0539 0.404178 12.0228 0.402945 11.9795 0.40009C11.8924 0.394348 11.7589 0.382241 11.5952 0.35705C11.2601 0.305497 10.8385 0.205241 10.437 0.0199018L9.16303 2.7801C9.89896 3.11976 10.6149 3.282 11.1329 3.3617C11.3958 3.40213 11.6178 3.42284 11.7795 3.4335C11.8606 3.43885 11.9273 3.44172 11.9772 3.44326C12.0021 3.44402 12.0229 3.44446 12.0393 3.4447C12.0475 3.44483 12.0546 3.4449 12.0606 3.44494C12.0635 3.44497 12.0662 3.44498 12.0686 3.44499C12.0699 3.44499 12.071 3.445 12.072 3.445C12.0726 3.445 12.0731 3.445 12.0736 3.445C12.0738 3.445 12.0742 3.445 12.0743 3.445C12.0747 3.445 12.075 3.445 12.075 1.925ZM12.6 0.405H12.075V3.445H12.6V0.405Z" fill="#0DE298" mask="url(#path-4-inside-2_1182_25670)"/>
<path d="M6.57343 8.97957C6.66123 9.06462 6.80408 9.05164 6.87634 8.95305C7.37006 8.27941 7.86799 7.68446 8.24619 7.25492C8.49003 6.978 8.71905 6.72613 8.93824 6.49955C9.13662 6.29448 9.33331 6.10644 9.52239 5.92952C9.77087 5.69696 10.0518 5.44508 10.276 5.27634C10.3707 5.20502 10.3963 5.06832 10.3249 4.97365L10.2662 4.89583C10.2037 4.81304 10.0883 4.79163 10.0009 4.84755C9.61852 5.09239 9.25621 5.3438 8.96872 5.54243C8.77871 5.67373 8.60239 5.79993 8.43622 5.92013C8.27161 6.03921 8.10166 6.17 7.92246 6.30718C7.64797 6.51731 7.30452 6.79126 6.96163 7.08005C6.88346 7.14589 6.76824 7.1431 6.69393 7.07292L5.97888 6.39758C5.90678 6.32948 5.79566 6.32451 5.71776 6.3859L4.8929 7.03597C4.79782 7.11091 4.79059 7.25247 4.87754 7.3367L6.57343 8.97957Z" fill="white"/>
</g>
<defs>
<clipPath id="clip0_1182_25670">
<rect width="14" height="14" fill="white"/>
</clipPath>
</defs>
</svg>
